<svg width="180" height="60" viewBox="0 0 180 60" fill="none" xmlns="http://www.w3.org/2000/svg">
  <!-- Background -->
  <rect width="180" height="60" rx="8" fill="#8B4513"/>
  
  <!-- Chocolate drip effect -->
  <path d="M20 0 C20 0, 25 8, 30 8 C35 8, 40 0, 40 0 L40 12 C40 12, 35 20, 30 20 C25 20, 20 12, 20 12 Z" fill="#6B3410" opacity="0.6"/>
  <path d="M60 0 C60 0, 65 10, 70 10 C75 10, 80 0, 80 0 L80 15 C80 15, 75 25, 70 25 C65 25, 60 15, 60 15 Z" fill="#6B3410" opacity="0.6"/>
  <path d="M100 0 C100 0, 105 6, 110 6 C115 6, 120 0, 120 0 L120 10 C120 10, 115 16, 110 16 C105 16, 100 10, 100 10 Z" fill="#6B3410" opacity="0.6"/>
  
  <!-- Cake icon -->
  <g transform="translate(15, 20)">
    <rect x="2" y="15" width="16" height="10" rx="2" fill="#D2691E"/>
    <rect x="4" y="12" width="12" height="3" rx="1" fill="#F4A460"/>
    <circle cx="10" cy="8" r="2" fill="#FFD700"/>
    <path d="M10 8 L10 4" stroke="#FFD700" stroke-width="1.5" stroke-linecap="round"/>
    <path d="M10 4 C10 4, 8 2, 10 0 C12 2, 10 4, 10 4" fill="#FF6347"/>
  </g>
  
  <!-- Text: Chocolatudo -->
  <text x="50" y="38" font-family="'Pacifico', cursive, sans-serif" font-size="24" font-weight="bold" fill="#FFFFFF">Chocolatudo</text>
  
  <!-- Tagline -->
  <text x="52" y="50" font-family="Arial, sans-serif" font-size="8" fill="#FFE4B5" opacity="0.9">Bolos Artesanais</text>
</svg>